<?xml version="1.0" encoding="utf-8"?>
<!-- Generator: Adobe Illustrator 26.0.1, SVG Export Plug-In . SVG Version: 6.00 Build 0)  -->
<svg version="1.1" id="Layer_1" xmlns="http://www.w3.org/2000/svg" xmlns:xlink="http://www.w3.org/1999/xlink" x="0px" y="0px"
	 viewBox="0 0 3147 2000" style="enable-background:new 0 0 3147 2000;" xml:space="preserve">
<style type="text/css">
	.st0{opacity:0.3;fill:#9BC1F9;}
	.st1{fill:#466EB6;}
	.st2{fill:#7F1CA0;}
	.st3{fill:#F47458;}
	.st4{fill:#F48C7F;}
	.st5{fill:#B75742;}
	.st6{fill:#13375B;}
	.st7{fill:#355389;}
	.st8{fill:#86B1F2;}
	.st9{fill:#FAE0B2;}
	.st10{fill:#DAEEF7;}
	.st11{fill:#50BFA5;}
	.st12{fill:#3C8F7C;}
	.st13{fill:#184655;}
	.st14{fill:#F7CC7F;}
	.st15{fill:#EFEFEF;}
	.st16{fill:#FFFFFF;}
	.st17{fill:#F79C8D;}
	.st18{fill:#042A44;}
	.st19{fill:#07345A;}
	.st20{fill:#F7A491;}
	.st21{fill:#327F6B;}
</style>
<g>
	<g>
		<g>
			<path class="st0" d="M2844.72,1539.64h-351.24c37.59-34.55,61.56-86.87,61.56-145.43v-43.03c0-124.66,90.63-225.72,202.43-225.72
				l0,0c114.6,0,207.51-103.6,207.51-231.39v0c0-127.79-92.9-231.39-207.51-231.39h-34c-111.8,0-202.43-101.06-202.43-225.72v0
				c0-104.03-75.63-188.36-168.92-188.36H1032.28c-103.84,0-188.01,93.86-188.01,209.65v0c0,79.15,39.34,148.05,97.41,183.73H709.83
				c-96.69,0-175.07,80.89-175.07,180.67v0c0,119.58-93.93,216.51-209.8,216.51h-35.23c-118.78,0-215.07,99.37-215.07,221.95v0
				c0,122.58,96.29,221.95,215.07,221.95h0c115.87,0,209.8,96.94,209.8,216.51v41.28c0,99.78,78.38,180.67,175.07,180.67h814.66
				c6.15,0.59,12.37,0.91,18.67,0.91h1336.79c105.71,0,191.4-85.69,191.4-191.4v0C3036.11,1625.34,2950.42,1539.64,2844.72,1539.64z
				"/>
			<g>
				<path class="st1" d="M920.7,1309.9c-5.33-0.01-9.67,6.13-9.68,13.73c-0.02,7.6,4.29,13.76,9.62,13.78
					c5.33,0.01,9.67-6.13,9.68-13.73C930.33,1316.08,926.03,1309.92,920.7,1309.9z M920.69,1313.79c2.86,0.01,5.18,1.44,5.17,3.2
					c0,1.76-2.33,3.18-5.19,3.17c-2.86-0.01-5.18-1.44-5.17-3.2C915.5,1315.2,917.83,1313.78,920.69,1313.79z M920.64,1332.25
					c-4.04-0.01-7.3-2.22-7.29-4.93c0.01-2.71,3.28-4.9,7.32-4.89c4.04,0.01,7.3,2.22,7.29,4.93
					C927.95,1330.07,924.68,1332.26,920.64,1332.25z"/>
				<path class="st2" d="M898.79,1340.27c-2.03,4.37-3.09,9.12-3.1,13.94l-0.25,100.69c-0.02,6.08,4.95,11.02,11.1,11.04l57.58,0.14
					c6.14,0.02,11.14-4.9,11.15-10.98l0.25-100.69c0.01-4.81-1.03-9.57-3.03-13.95L898.79,1340.27z"/>
				<path class="st2" d="M898.79,1340.27c-2.03,4.37-3.09,9.12-3.1,13.94l-0.25,100.69c-0.02,6.08,4.95,11.02,11.1,11.04l57.58,0.14
					c6.14,0.02,11.14-4.9,11.15-10.98l0.25-100.69c0.01-4.81-1.03-9.57-3.03-13.95L898.79,1340.27z"/>
				<path class="st3" d="M975.52,1354.4l-0.25,100.7c-0.01,6.08-5.01,11-11.15,10.98l-57.58-0.14c-6.15-0.02-11.11-4.96-11.1-11.04
					l0.25-100.7c0.01-4.81,1.07-9.56,3.1-13.93l73.69,0.18C974.48,1344.84,975.53,1349.6,975.52,1354.4z"/>
				<path class="st4" d="M910.71,1454.94l0.25-100.69c0.01-4.81,1.07-9.56,3.1-13.94l-15.27-0.04c-2.03,4.37-3.09,9.12-3.1,13.94
					l-0.25,100.69c-0.02,6.08,4.95,11.02,11.1,11.04l15.27,0.04C915.66,1465.96,910.69,1461.02,910.71,1454.94z"/>
				<path class="st5" d="M975.52,1354.4l-0.25,100.7c-0.01,6.08-5.01,11-11.15,10.98l-23.54-0.06c6.2,0.02,11.25-4.91,11.27-10.98
					l0.25-100.7c0.01-4.81-1.05-9.56-3.07-13.95l23.45,0.06C974.48,1344.84,975.53,1349.6,975.52,1354.4z"/>
				<path class="st6" d="M972.48,1340.45l-73.7-0.18l0,0c0.01-3.22,2.65-5.82,5.9-5.81l61.92,0.15
					C969.86,1334.62,972.49,1337.23,972.48,1340.45L972.48,1340.45z"/>
				
					<rect x="929.13" y="1401.46" transform="matrix(2.455419e-03 -1 1 2.455419e-03 -508.2772 2373.2239)" class="st7" width="12.51" height="79.82"/>
			</g>
			<g>
				<path class="st8" d="M826.26,1307.85h8.8c-1.44-0.98-3.24-1.57-5.2-1.57H609.3c-11.54,0-20.89,8.29-20.89,18.52v11.76
					c0,10.23,9.35,18.52,20.89,18.52l218.09-0.07L826.26,1307.85z"/>
				<path class="st1" d="M701.04,1306.32c-11.04,0-19.98,7.93-19.98,17.71v13.29c0,9.78,8.95,17.71,19.98,17.71h137.3v-2.97h-0.57
					l-34.91-2.93l-7.06-24.53c0,0,13.62-13.56,14.5-13.91c0.89-0.35,27.46-1.41,27.46-1.41l0.57-0.01v-2.96H701.04z"/>
				<path class="st9" d="M829.44,1330.59c0-14.34,8.36-21.3,8.36-21.3H703.86c-10.14,0-18.35,7.28-18.35,16.27v10.23
					c0,8.98,8.22,16.27,18.35,16.27H837.8C837.8,1352.07,829.44,1348.66,829.44,1330.59z"/>
				<path class="st10" d="M685.5,1325.56v10.23c0,1.35,0.19,2.65,0.54,3.9c4.52-9.8,13.18-19.24,29.66-22.27
					c38.48-7.08,122.11-8.13,122.11-8.13H703.86C693.72,1309.3,685.5,1316.58,685.5,1325.56z"/>
				<path class="st11" d="M822.63,1405.41h9.96c-1.63-1.23-3.67-1.97-5.89-1.97H577.08c-13.06,0-23.65,10.38-23.65,23.18v14.73
					c0,12.8,10.59,23.18,23.65,23.18l246.84-0.08L822.63,1405.41z"/>
				<path class="st12" d="M680.91,1403.49c-12.49,0-22.61,9.93-22.61,22.17v16.64c0,12.24,10.12,22.17,22.61,22.17h155.4v-3.72
					h-0.64l-39.51-3.67l-7.98-30.71c0,0,15.41-16.97,16.42-17.41s31.07-1.77,31.07-1.77l0.64-0.01v-3.7H680.91z"/>
				<path class="st9" d="M826.23,1433.87c0-17.96,9.46-26.66,9.46-26.66h-151.6c-11.47,0-20.77,9.12-20.77,20.36v12.81
					c0,11.25,9.3,20.36,20.77,20.36h151.6C835.69,1460.75,826.23,1456.48,826.23,1433.87z"/>
				<path class="st10" d="M663.32,1427.58v12.81c0,1.68,0.21,3.32,0.61,4.88c5.11-12.26,14.91-24.08,33.57-27.88
					c43.55-8.87,138.2-10.18,138.2-10.18h-151.6C672.62,1407.21,663.32,1416.33,663.32,1427.58z"/>
				<path class="st3" d="M545.2,1356.52h-9.97c1.63-0.98,3.67-1.56,5.89-1.56h249.72c13.07,0,23.66,8.24,23.66,18.4v11.68
					c0,10.16-10.59,18.4-23.66,18.4l-246.93-0.07L545.2,1356.52z"/>
				<path class="st5" d="M686.97,1355c12.49,0,22.62,7.88,22.62,17.59v13.2c0,9.72-10.13,17.59-22.62,17.59H531.51v-2.95h0.64
					l39.52-2.91l7.99-24.37c0,0-15.42-13.47-16.42-13.81c-1.01-0.35-31.09-1.4-31.09-1.4l-0.64-0.01V1355H686.97z"/>
				<path class="st9" d="M541.6,1379.11c0-14.25-9.47-21.15-9.47-21.15h151.66c11.48,0,20.78,7.23,20.78,16.16v10.16
					c0,8.92-9.3,16.16-20.78,16.16H532.13C532.13,1400.44,541.6,1397.05,541.6,1379.11z"/>
				<path class="st10" d="M704.57,1374.12v10.16c0,1.34-0.21,2.63-0.61,3.88c-5.11-9.73-14.92-19.1-33.58-22.12
					c-43.57-7.04-138.26-8.08-138.26-8.08h151.66C695.27,1357.96,704.57,1365.19,704.57,1374.12z"/>
			</g>
			
				<rect x="1387.36" y="1375.53" transform="matrix(0.9825 0.1862 -0.1862 0.9825 331.4749 -231.7409)" class="st13" width="23.83" height="546.04"/>
			<polygon class="st13" points="2136.89,1921.5 2165.05,1921.5 2060.11,1378.04 2036.7,1382.48 			"/>
			<polygon class="st13" points="1621.32,1921.5 1649.48,1921.5 1544.54,1378.04 1521.12,1382.48 			"/>
			<polygon class="st13" points="1880.31,1921.5 1857.44,1921.77 1958.06,1380.48 1981.47,1384.91 			"/>
			<path class="st9" d="M1778.16,646.12c92.71,9.93,212.69,20.4,333.13,224.8c131.64,223.39,62.34,557.09-41.56,649.82
				c-103.9,92.73-443.24,207.23-728.5,35.82c0,0-172.24-103.88-83.85-276.27c136.03-265.3,116.81-320.62,177.63-424.59
				S1581.37,625.05,1778.16,646.12z"/>
			<path class="st14" d="M2111.29,870.92c-82.21-139.51-164.2-188.67-237.45-208.98c28.33,29.32,57.06,67.04,85.81,115.83
				c131.64,223.39,62.34,557.09-41.56,649.82c-92.14,82.23-369.44,181.55-629.98,83.44c26.79,29.64,53.12,45.52,53.12,45.52
				c285.26,171.41,624.6,56.91,728.5-35.82C2173.64,1428.01,2242.93,1094.32,2111.29,870.92z"/>
			<path class="st4" d="M491.95,804.46c-2.63,20.72,18.95,37.17,38.15,35.87c21.22-1.43,39.22-18.83,42.32-39.68
				c3.36-22.57-10.2-40.62-31.18-42.27c-20.42-1.61-33.49,16.57-27.59,34.91c4.23,13.15,16.23,18.05,22.28,14.42
				c4.71-2.83,4.43-9.96-1.28-11.22c-2.29-0.5-4.64,0.77-5.86,2.53c-5-1.98-9.75-11.08-6.52-20.9c4.12-12.54,19.98-13.26,29.82-7.41
				c12.53,7.45,14.5,23.48,9.91,36.25c-4.83,13.41-18,23.98-32.34,25c-16.25,1.15-30.55-11.3-31.84-27.49
				C497.5,800.66,492.42,800.75,491.95,804.46z"/>
			<g>
				<path class="st9" d="M1920.46,112.71c-95.95-0.57-174.02,46.75-174.37,105.7c-0.17,29.47,19.11,56.27,50.44,75.77l-39.46,86.67
					l82.35-67.07c23.86,7.75,50.99,12.22,79.77,12.39c95.95,0.57,174.02-46.75,174.37-105.7
					C2093.92,161.52,2016.41,113.28,1920.46,112.71z"/>
				<g>
					<path class="st14" d="M1853.99,229.59c8.52,32.34,41.64,51.64,73.98,43.12c32.33-8.53,51.64-41.65,43.11-73.99
						c-8.52-32.34-41.64-51.64-73.98-43.12C1864.77,164.13,1845.46,197.26,1853.99,229.59z"/>
					<path class="st15" d="M1946.28,215.18c4.56,17.29-5.76,35-23.05,39.56c-17.29,4.56-34.99-5.76-39.55-23.05L1946.28,215.18z"/>
				</g>
			</g>
			<g>
				<path class="st3" d="M930.02,949.58l264.92-1.99c6.05-0.05,10.92-4.99,10.87-11.04l-1.33-177.12
					c-0.05-6.05-4.99-10.92-11.04-10.87l-264.92,1.99c-6.05,0.05-10.92,4.99-10.87,11.04l1.33,177.12
					C919.03,944.76,923.97,949.62,930.02,949.58z"/>
				<polygon class="st3" points="1196.36,847.09 1281.89,934.25 1176.37,914.56 				"/>
				<g>
					<path class="st16" d="M1119.18,834.8l-25.74-0.46c0,0-32.44-24.22-33.43-32.78c-0.99-8.56,4.32-26.68-0.71-28.95
						c-5.03-2.27-15.69-4.07-22.42,7.26c-4.89,8.23-0.82,38.27-3.84,40.27c-1.89,1.26-16.69,1.41-27.51,1.35
						c-7.11-0.04-13.65,3.87-16.98,10.15l-0.01,0.02c-2.25,4.25-1.23,9.49,2.46,12.57l5.74,4.8l-4.52,6
						c-3.36,4.47-2.49,10.82,1.96,14.21l4.53,3.46l-3.1,3.54c-4,4.55-3.15,11.57,1.81,15.04l4.03,2.82l-0.61,1.11
						c-2.52,4.64-1.07,10.43,3.33,13.34l4.05,2.68l68.56,1.22c6.42,0.11,12.8-1.09,18.74-3.53l24.18-3.56
						c2.6-0.38,4.53-2.61,4.53-5.24l0.15-60.01C1124.4,837.22,1122.08,834.85,1119.18,834.8z"/>
				</g>
			</g>
			<polygon class="st17" points="1480.51,985.67 1456.68,1057.16 1529.31,1028.59 			"/>
			<path class="st18" d="M1555.38,772.94c-4.84,0.2-18.11,4.62-37.51,41.16c-24.77,46.66-60.98,187.62-60.98,187.62l108.08,40.11
				l13.89-29.42l22.87-226.5C1601.72,785.91,1556.72,772.88,1555.38,772.94z"/>
			<path class="st19" d="M1698.25,752.62c-30.91,0.04-107.38,9.03-142.87,20.33c0,0-26.07,223.34,23.47,393.06
				c11.09,37.99-9.17,157.48-9.17,157.48l320.26-4.21c0,0-37.94-288.88-23.65-335.54c14.29-46.66,14.63-209.28,14.63-209.28
				s-2.19-0.34-71.95-12.36C1776.43,756.49,1731.25,752.58,1698.25,752.62z"/>
			<path class="st20" d="M1735.57,1738.02c0,0-7.08,81.5-20.11,104.06c-13.03,22.57,0.69,60.93,1.37,66.2
				c0.69,5.27,27.42,12.79,69.93,8.28c42.51-4.51,41.82-14.29,38.39-30.09c-3.43-15.8-26.05-36.11-27.42-51.15
				c-1.37-15.05,13.03-69.21,13.03-69.21L1735.57,1738.02z"/>
			<path class="st21" d="M1605.81,1256.22c0,0-221.07-12.23-270.44,17.56c-49.37,29.8,8.93,90.98,8.93,90.98
				s179.98,77.99,481.29,95.32c71.35,4.1,77.5-185.41,64.16-201.09C1876.41,1243.31,1605.81,1256.22,1605.81,1256.22z"/>
			<path class="st7" d="M1792.06,1922.89c43.77-4.65,38.36-26.08,34.83-42.35c-2.21-10.19-14.77-22.19-22.25-33.55
				c-3.91,3.11-10.28,8.59-29.29,14.19c-19.74,5.81-46.8-5.69-64.04-12.89c-6.15,22.79-6.43,51.86-5.85,56.27
				C1706.17,1909.98,1748.29,1927.54,1792.06,1922.89z"/>
			<path class="st12" d="M1767.9,1413.84c-8.83,66.61-52.56,398.2-52.56,398.2l101.47,12.54c0,0,124.78-432.81,118.38-499.01
				c-6.4-66.2-53.11-71.77-53.11-71.77S1791.28,1237.52,1767.9,1413.84z"/>
			<path class="st19" d="M1670.69,470.85c0,0,33.71-35.55,60.83,7.7c0,0,20.89-11.73,35.55,9.16c0,0,37.74-11.36,46.91,45.07
				c0,0,19.42-3.66,21.99,19.42c2.57,23.09-9.16,38.48-9.16,38.48s10.91,8.18,5.95,29.41c-4.21,18.05-19.15,20.8-19.15,20.8
				s-4.03,30.42-17.22,39.58c-13.19,9.16-31.15,4.76-31.15,4.76s-4.76,16.49-20.15,15.02c-15.39-1.47-34.45-16.12-51.67-9.53
				c-17.22,6.6-61.93-0.37-61.93-0.37s-50.2-22.35-35.18-73.66c0,0-26.38-23.82-3.3-52.4c0,0-16.86-44.71,16.49-71.09
				C1642.84,466.81,1670.69,470.85,1670.69,470.85z"/>
			<path class="st20" d="M1676.39,712.17l-6.1,45.28c0,0-13.67,65.23,3.92,77.8c17.59,12.58,74.8-79.66,74.8-79.66l-6.04-114.73
				L1676.39,712.17z"/>
			<path class="st3" d="M1744.91,678.04c-14.53,39.13-49.13,63.19-73.69,72.52l5.17-38.39l66.57-71.31L1744.91,678.04z"/>
			<path class="st20" d="M1702.31,520.33c-35.69-12.29-73.74,11.42-79.19,48.22c-2.37,15.99-4.51,36.1-4.91,58.09
				c-0.96,52.88,26.42,104.35,50.43,104.35c24.01,0,90.38-34.23,92.78-109.31C1762.91,575.33,1739.77,533.22,1702.31,520.33z"/>
			<path class="st20" d="M1743.73,627.61c0,11.67,7.73,21.12,17.27,21.12c9.54,0,17.27-9.46,17.27-21.12
				c0-11.67-7.73-21.12-17.27-21.12C1751.47,606.49,1743.73,615.95,1743.73,627.61z"/>
			<path class="st19" d="M1598.28,494.02c-24.8,19.65-33.5,49.51-19.42,66.69c14.08,17.18,45.6,15.18,70.41-4.47
				c24.8-19.65,33.5-49.51,19.42-66.69C1654.61,472.36,1623.08,474.37,1598.28,494.02z"/>
			<path class="st20" d="M1884.41,799.28c-29.94-11.19-44.59,257.69-48.63,368.36c-53.03,5.08-145.45,0.04-168.46-1.68
				c-10.82-0.81-35.78-9.92-46.54-11.32c-11.03-1.44-21.03-2.19-26.45-1.25c-1.99,0.35-57.26,22.87-61.99,27.81
				c-5.86,6.13-21.72,21.58-19.04,28.26c2.67,6.68,30.49-18.62,30.49-18.62l13.59-7.6c-16.92,16.47-49.2,38.17-44.55,46.07
				c4.53,7.7,33.65-14.31,54.4-29.32c-17.8,16.02-39.91,44.69-34.81,49.16c4.58,4.02,29.73-29.17,56.61-38.73
				c9.96-3.54,19.89,6.27,27.72,7.45c5.76,0.87,14.65,2.72,20.3,1.13l29.1-8.23c9.91,0.89,10.16,6.74,20.17,8.86
				c11.62,2.47,30.69,5.06,45.49,8.67c85.23,20.75,113.66,30.39,139.75,30.38C1950.59,1258.62,1955.18,825.73,1884.41,799.28z"/>
			<path class="st19" d="M1941.24,1051.71c5.61-113.36,4.79-253.09-58.98-276.93c-25.16-9.41-69.51,47.15-61.54,279.23
				C1854.76,1056.81,1904.74,1059.07,1941.24,1051.71z"/>
			<polygon class="st17" points="1584.49,1003 1590.99,1003 1688.71,1242.31 1681.98,1241.29 			"/>
			<path class="st20" d="M1438.85,1807.73c0,0,8.85,28.29-7,47c-15.85,18.71-81.73,37.07-90.38,47.2
				c-8.65,10.13-7.99,18.76-7.99,18.76l184.9-5.07l-2.01-55.65l-8.51-39.99L1438.85,1807.73z"/>
			<path class="st7" d="M1420.34,1864.06c0,0,47.51,19.15,70.46,7.81c22.95-11.34,22.26-14.48,28.9-10.25
				c6.64,4.23,9.02,56.4,9.02,56.4l-207.91,6.09c-14.47-0.33-21.78-10.95-10.03-20.04c8.06-6.23,17.37-10.41,22.67-13.43
				C1349.71,1881.34,1420.34,1864.06,1420.34,1864.06z"/>
			<path class="st12" d="M1445.85,1308.44c-14.29-29.97-46.79-68.99-103.98-45.49c-54.54,22.42-69.18,77.51-51.97,133.92
				s130.5,388.04,134.45,433.64l90.46,0.6c0,0-16.44-262.59-20.47-326.06C1490.45,1443.98,1470.59,1360.32,1445.85,1308.44z"/>
			<path class="st3" d="M1299.01,1003h302.37c8,0,15.21,4.83,18.24,12.24l93.1,227.07h166.7c4.66,0,8.44,3.78,8.44,8.43l0,0
				c0,4.66-3.78,8.43-8.44,8.43h-474.44c-13.04,0-24.87-7.66-30.21-19.56l-93.75-208.83C1275.16,1017.75,1284.71,1003,1299.01,1003z
				"/>
			<path class="st16" d="M1461.8,1135.23c2.04,10.2,10.94,17.02,19.87,15.23c8.93-1.79,14.52-11.5,12.48-21.7
				c-2.04-10.2-10.94-17.02-19.87-15.23C1465.35,1115.31,1459.76,1125.03,1461.8,1135.23z"/>
			<ellipse class="st0" cx="2311.9" cy="532.18" rx="149.3" ry="149.61"/>
			<g>
				<g>
					<g>
						<rect x="2151.33" y="529.24" class="st13" width="55.04" height="4.24"/>
					</g>
					<g>
						<rect x="2417.77" y="529.24" class="st13" width="55.04" height="4.24"/>
					</g>
					<g>
						<rect x="2309.55" y="372.41" class="st13" width="4.23" height="55.16"/>
					</g>
					<g>
						<rect x="2309.55" y="638.33" class="st13" width="4.23" height="55.16"/>
					</g>
					<path class="st13" d="M2316.45,532.18c0,2.52-2.04,4.57-4.56,4.57c-2.52,0-4.56-2.04-4.56-4.57c0-2.52,2.04-4.57,4.56-4.57
						C2314.41,527.62,2316.45,529.66,2316.45,532.18z"/>
					<g>
						<path class="st13" d="M2311.9,534.22c-0.52,0-1.04-0.2-1.44-0.6l-81.87-82.04c-0.8-0.8-0.8-2.09,0-2.89
							c0.79-0.8,2.09-0.8,2.88,0l81.87,82.04c0.8,0.8,0.8,2.09,0,2.89C2312.94,534.03,2312.42,534.22,2311.9,534.22z"/>
					</g>
					<g>
						<path class="st13" d="M2338.22,615.09c-0.34-0.17-0.61-0.47-0.74-0.86l-26.46-80.1c-0.26-0.78,0.16-1.62,0.94-1.88
							c0.78-0.26,1.61,0.16,1.87,0.94l26.46,80.1c0.26,0.78-0.16,1.62-0.94,1.88C2338.96,615.3,2338.56,615.26,2338.22,615.09z"/>
					</g>
				</g>
			</g>
			<path class="st19" d="M2549.85,869.65l13.33-21.64l-10.7-4.34c-2.34-0.95-3.47-3.62-2.52-5.96l0,0c0.95-2.34,3.62-3.47,5.96-2.52
				l12.34,5l11.91-19.44l-11.43-4.64c-2.34-0.95-3.47-3.62-2.52-5.96l0,0c0.95-2.34,3.62-3.47,5.96-2.52l13.07,5.3l13.84-22.26
				c1.18-1.89,3.54-2.66,5.61-1.82l2,0.81c2.62,1.06,3.66,4.22,2.18,6.63l-12.87,21l18.95,7.68l13.84-22.26
				c1.18-1.89,3.54-2.66,5.61-1.82l2.18,0.88c2.62,1.06,3.66,4.22,2.18,6.63l-12.87,21l10.7,4.34c2.34,0.95,3.47,3.62,2.52,5.96l0,0
				c-0.95,2.34-3.62,3.47-5.96,2.52l-12.34-5l-11.73,19.51l11.43,4.64c2.34,0.95,3.47,3.62,2.52,5.96l0,0
				c-0.95,2.34-3.62,3.47-5.96,2.52l-13.07-5.3l-14.13,22.96c-1.17,1.9-3.55,2.68-5.62,1.84l-2.33-0.95
				c-2.62-1.06-3.66-4.23-2.18-6.64l13.33-21.64l-18.95-7.68l-14.13,22.95c-1.17,1.9-3.55,2.68-5.62,1.84l-2.33-0.95
				C2549.41,875.22,2548.37,872.06,2549.85,869.65z M2598.14,852.31l11.91-19.44l-18.95-7.69l-11.91,19.44L2598.14,852.31z"/>
			<path class="st4" d="M1380.78,280.88l13.63-30.75l-17.61-28.66c-2.01-3.26,0.6-7.41,4.41-7.02l33.46,3.46l21.81-25.6
				c2.48-2.92,7.23-1.72,8.04,2.03l7.05,32.89l31.09,12.83c3.54,1.46,3.87,6.35,0.55,8.27l-29.1,16.87l-2.6,33.54
				c-0.3,3.82-4.84,5.64-7.7,3.08l-25.04-22.46l-32.7,7.89C1382.36,288.14,1379.23,284.38,1380.78,280.88z"/>
			<path class="st14" d="M2367.8,280.85l10.22-23.07l-13.21-21.5c-1.5-2.45,0.45-5.56,3.31-5.26l25.1,2.59l16.36-19.2
				c1.86-2.19,5.43-1.29,6.03,1.52l5.29,24.67l23.32,9.63c2.66,1.1,2.9,4.76,0.42,6.2l-21.83,12.65l-1.95,25.15
				c-0.22,2.87-3.63,4.23-5.77,2.31l-18.78-16.85l-24.53,5.92C2368.99,286.3,2366.63,283.48,2367.8,280.85z"/>
			<path class="st4" d="M2266.35,939.92l-1.62-19.11l-16.66-9.5c-1.9-1.08-1.73-3.87,0.28-4.72l17.67-7.44l3.89-18.78
				c0.44-2.14,3.15-2.84,4.57-1.19l12.54,14.51l19.06-2.11c2.17-0.24,3.67,2.11,2.54,3.98l-9.92,16.41l7.89,17.48
				c0.9,1.99-0.87,4.15-3,3.65l-18.67-4.36l-14.18,12.91C2269.14,943.12,2266.54,942.1,2266.35,939.92z"/>
			<path class="st14" d="M737.66,659l7.49-16.92l-9.69-15.76c-1.1-1.8,0.33-4.08,2.43-3.86l18.4,1.9l12-14.08
				c1.37-1.6,3.98-0.94,4.42,1.12l3.88,18.09l17.1,7.06c1.95,0.8,2.13,3.49,0.3,4.55L778,650.37l-1.43,18.45
				c-0.16,2.1-2.66,3.1-4.23,1.7l-13.77-12.36l-17.99,4.34C738.54,662.99,736.81,660.92,737.66,659z"/>
			<path class="st11" d="M1317.76,628.38l7.49-16.92l-9.69-15.76c-1.1-1.8,0.33-4.08,2.43-3.86l18.4,1.9l12-14.08
				c1.37-1.6,3.98-0.94,4.42,1.12l3.88,18.09l17.1,7.06c1.95,0.8,2.13,3.49,0.31,4.55l-16.01,9.28l-1.43,18.45
				c-0.16,2.1-2.66,3.1-4.23,1.7l-13.77-12.36l-17.99,4.34C1318.63,632.38,1316.9,630.31,1317.76,628.38z"/>
			<polygon class="st11" points="1028.94,354.35 1058.64,350.04 1070.85,397.07 1115.05,396.12 1129.94,429.82 1147,422.28 
				1127.08,377.21 1085.19,378.11 1072.49,329.19 1027.8,335.67 			"/>
			<polygon class="st19" points="965.26,1142.01 987.73,1122.12 1023.73,1154.75 1060.17,1129.72 1091.1,1149.74 1101.23,1134.08 
				1059.87,1107.31 1025.33,1131.03 987.88,1097.09 954.06,1127.01 			"/>
			<path class="st11" d="M612.25,1166.61l18.86-30.63l-15.15-6.14c-3.31-1.34-4.91-5.12-3.57-8.43l0,0
				c1.34-3.31,5.12-4.91,8.43-3.57l17.47,7.08l16.86-27.51l-16.18-6.56c-3.31-1.34-4.91-5.12-3.57-8.43l0,0
				c1.34-3.31,5.12-4.91,8.43-3.57l18.5,7.5l19.58-31.5c1.66-2.68,5.01-3.77,7.93-2.58l2.82,1.15c3.71,1.5,5.18,5.97,3.09,9.38
				l-18.21,29.73l26.82,10.88l19.58-31.5c1.66-2.68,5.01-3.77,7.93-2.58l3.08,1.25c3.71,1.5,5.18,5.97,3.09,9.38l-18.21,29.73
				l15.15,6.14c3.31,1.34,4.91,5.12,3.57,8.43l0,0c-1.34,3.31-5.12,4.91-8.43,3.57l-17.47-7.08l-16.6,27.61l16.18,6.56
				c3.31,1.34,4.91,5.12,3.57,8.43l0,0c-1.34,3.31-5.12,4.91-8.43,3.57l-18.5-7.5l-20,32.49c-1.66,2.69-5.02,3.79-7.95,2.61
				l-3.3-1.34c-3.71-1.51-5.18-5.99-3.08-9.4l18.86-30.63l-26.82-10.88l-20,32.49c-1.66,2.69-5.02,3.79-7.95,2.61l-3.3-1.34
				C611.62,1174.5,610.15,1170.02,612.25,1166.61z M680.6,1142.07l16.86-27.51l-26.82-10.88l-16.86,27.51L680.6,1142.07z"/>
			<g>
				<path class="st12" d="M2325.58,1554.16c-1.92-16.94-4.2-34.27-12.06-49.39c-9.56-18.38-26.36-31.65-41.03-46.26
					c-27.42-27.3-48.52-60.93-61.19-97.53c-9.79-28.3-14.68-58.45-28.17-85.17c-8.24-16.32-19.48-30.91-28.84-46.61
					c-22.12-37.11-34.17-80.96-64.17-112.02c-5.77,37.66,5.64,77.62,30.41,106.51c7.39,8.62,15.96,16.39,21.59,26.25
					c10.22,17.9,9.29,39.75,10.49,60.34c2.25,38.7,13.16,76.87,31.68,110.89c19.68,36.15,48.1,68.33,58.62,108.14
					c7.89,29.83,5.54,63.29,22.36,89.14c1.82,2.8,3.91,5.62,4.35,8.93c0.25,1.86-0.04,3.75-0.33,5.6c-0.38,2.4-0.75,4.8-1.13,7.2
					c-3.83,24.41-7.78,55.48,13.2,73.75c14.54,12.66,33.25,12.95,43.69-3.87c10.51-16.94,9.58-41.72,8.8-60.78
					C2332.56,1617.54,2329.16,1585.71,2325.58,1554.16z"/>
				<path class="st21" d="M2363.37,1534.52c-8.16-28.26-20.83-55.17-27.18-83.9c-6.16-27.86-6.21-56.66-6.23-85.2
					c-0.02-31.27-0.04-62.54-0.07-93.81c-0.01-19.47-0.04-39.04-3.25-58.24c-6.92-41.31-28.39-79.5-32.03-121.23
					c-1.57-18.04,0.25-36.28-1.73-54.28c-1.13-10.29-3.77-20.78-8.53-29.91c-5.12-9.81-19.27-9.38-23.9,0.67
					c-10.43,22.59-17.04,47.02-12.83,71.22c2.53,14.52,8.82,28.06,13.51,42.03c20.91,62.2,9.81,131.06,25.99,194.67
					c4.88,19.2,12.27,38.03,13.13,57.82c2.06,47.38-33.33,90.65-30.08,137.96c2.66,38.79,30.55,70.89,42.25,107.96
					c6.55,20.75,7.96,42.9,14.98,63.5c5.45,16,18.14,35.44,37.84,30.58c18.7-4.61,13.05-19.88,12.22-34.46
					C2374.63,1630.57,2377.29,1582.71,2363.37,1534.52z"/>
				<path class="st12" d="M2406.18,1560.42c-0.82-14.68-3.3-29.45-1.25-44.01c1.73-12.3,6.63-23.89,10.13-35.81
					c6.55-22.33,8.18-45.77,9.76-68.99c2.88-42.21,5.77-84.42,8.65-126.63c4.48-65.61,8.99-131.41,21.26-196.02
					c3.41-17.94,7.23-37.38-0.83-53.75c-1.7-3.45-5.04-7.11-8.71-5.96c-2.61,0.82-3.89,3.69-4.84,6.27
					c-26.82,72.88-36.95,151.34-66.89,222.99c-7.17,17.16-15.51,34.05-19.22,52.28c-4.46,21.89-2.01,44.51-1.43,66.84
					c0.83,32.03-2.29,64.31-11.14,95.11c-4.63,16.11-10.82,31.86-13.36,48.43c-3.16,20.66-0.51,41.71,1.47,62.52
					c3.81,40.01,5.09,80.26,3.86,120.43c-0.73,23.62,19.21,23,32.42,8.49c9.24-10.15,9.15-21.29,12.31-33.92
					C2388.75,1637.22,2408.7,1605.38,2406.18,1560.42z"/>
				<path class="st21" d="M2281.63,1624.46c-17.63-28.33-52.75-44.43-64.02-75.84c-2.87-7.99-3.99-16.59-7.49-24.33
					c-7.78-17.18-25.47-26.89-42.86-34.8c-2.41-1.1-5.16,0.65-5.2,3.31l0,0c-0.06,4.22,1.94,8.25,5.44,10.61
					c13.4,9.02,23.58,22.8,28.11,38.34c5.37,18.41,3.04,38.59,9.72,56.57c5.6,15.09,17.14,27.43,22.56,42.59
					c4.95,13.86,4.43,29,6.76,43.53c2.33,14.53,8.78,29.96,22.13,36.11C2305.08,1742.8,2293.01,1642.76,2281.63,1624.46z"/>
				<path class="st12" d="M2482.47,1615.11c-0.75,13.69,1.34,28.05-4.02,40.67c-3.43,8.07-9.6,14.6-14.66,21.76
					c-17.78,25.14-24.22,60.77-51.53,74.92c-1.8,0.93-3.81,1.77-5.81,1.4c-2.8-0.52-4.63-3.22-5.76-5.84
					c-6.7-15.6,0.82-33.18,5.27-49.56c0.78-2.87,1.43-6.06,0.06-8.7c-1.5-2.9-4.93-4.16-7.27-6.43c-4.67-4.54-4.23-12.05-3.3-18.5
					c2.32-16.12,5.57-32.1,9.74-47.83c2.37-8.92,5.1-17.92,10.24-25.59c5.66-8.43,13.88-14.73,21.58-21.35
					c34.01-29.26,60.06-67.72,74.65-110.19c3.16-9.19,5.97-18.9,12.49-26.1c6.52-7.2,18.14-10.91,26.09-5.32
					c5.65,3.98-17.49,41.2-20.19,45.67c-7.71,12.76-7.81,23.86-12.17,38.02C2507.19,1546.85,2484.51,1577.92,2482.47,1615.11z"/>
				<path class="st21" d="M2455.55,1630.94c5.05-13.06,10.15-26.3,11.81-40.21c1.85-15.46-0.6-31.28,2.04-46.63
					c3.4-19.73,14.9-37.09,20.6-56.28c4.11-13.86,5.12-28.42,7.59-42.67c7.06-40.74,26.22-80.55,20.72-121.53
					c-1.2-8.91-5.22-19.3-14.07-20.82c-8.01-1.38-15.3,5.95-17.38,13.82c-2.08,7.87-0.53,16.17,0.04,24.29
					c1.59,22.65-4.87,45.79-17.96,64.32c-12.58,17.8-30.84,31.21-42.16,49.84c-13.89,22.86-15.78,50.75-22.86,76.55
					c-14.09,51.31-49.44,96.06-55.88,148.88c-2.56,21.02,2.37,46.57,21.77,54.96C2425.9,1759.76,2442.84,1663.81,2455.55,1630.94z"
					/>
				<path class="st3" d="M2357.47,1696.06h-8.97h-119.78c-8.8,0-15.3,8.24-13.26,16.82l46.93,197.92c1.46,6.16,6.95,10.5,13.26,10.5
					h72.84h8.97h72.84c6.31,0,11.8-4.35,13.26-10.5l46.93-197.92c2.03-8.58-4.46-16.82-13.26-16.82H2357.47z"/>
			</g>
			<g>
				<rect x="439.84" y="1464.42" class="st13" width="625.85" height="32.32"/>
				<rect x="451.16" y="1651.93" class="st13" width="409.18" height="28.28"/>
				<rect x="977.88" y="1480.58" class="st13" width="26.4" height="440.86"/>
				<rect x="604.52" y="1480.58" class="st13" width="26.4" height="440.86"/>
				<polygon class="st13" points="790.1,1921.44 932.32,1484.37 909.01,1476.79 764.33,1921.44 				"/>
				<polygon class="st13" points="390.06,1921.44 511.7,1483.41 488.08,1476.85 364.62,1921.44 				"/>
			</g>
			<path class="st13" d="M2311.9,357.45c-96.3,0-174.37,78.23-174.37,174.73s78.07,174.73,174.37,174.73
				c96.3,0,174.37-78.23,174.37-174.73S2408.2,357.45,2311.9,357.45z M2321.25,681.5c-82.29,5.17-153.19-57.48-158.36-139.95
				c-5.16-82.47,57.36-153.51,139.66-158.69c82.29-5.18,153.2,57.48,158.36,139.95C2466.07,605.28,2403.54,676.33,2321.25,681.5z"/>
		</g>
		<rect x="199.1" y="1918.74" class="st18" width="2874.63" height="19.5"/>
	</g>
	<path class="st16" d="M1646.89,672.29l46.49-0.76c0,0-0.78,17.67-21.22,18.6C1647.25,691.25,1646.89,672.29,1646.89,672.29z"/>
</g>
</svg>
