<?xml version="1.0" encoding="utf-8"?>
<!-- Generator: Adobe Illustrator 26.0.1, SVG Export Plug-In . SVG Version: 6.00 Build 0)  -->
<svg version="1.1" id="Layer_1" xmlns="http://www.w3.org/2000/svg" xmlns:xlink="http://www.w3.org/1999/xlink" x="0px" y="0px"
	 viewBox="0 0 20 20" style="enable-background:new 0 0 20 20;" xml:space="preserve">
<style type="text/css">
	.st0{fill:#020202;}
</style>
<g>
	<path class="st0" d="M4.85,3.24C5.06,3.12,5.27,3,5.48,2.87C5.44,2.59,5.42,2.29,5.51,2.02C5.59,1.74,5.8,1.49,6.07,1.41
		C6.5,1.29,6.93,1.6,7.37,1.68C8.1,1.81,8.76,1.31,9.47,1.1c0.57-0.17,1.16-0.12,1.71,0.07c0.48,0.17,0.85,0.51,1.37,0.6
		c0.38,0.07,0.83,0.02,1.21,0.03c0.63,0.02,2.37-0.37,2.59,0.59l0.39,1.72l-0.23,0.23c0,0-0.03,2.13-0.17,2.39
		c0,0-0.99-1.8-1.21-1.65c-0.86,0.45-2.32,0.69-2.93,1.49c-0.68,0.88,0.23,1.67,0.93,2.16c0.48,0.34,0.96,0.67,1.45,1.01
		c0,0,1.13-1.52,1.04-1.75c0,0,0.62,1.63,0.17,2.56l0.51,0.39l-0.08,0.59l-0.79,0.51c-1.14-0.09-2.31-0.36-3.45-0.15
		c-1.29,0.25-2.42,0.47-3.15,1.62c-0.49,0.77-1.26,1.6-1.59,2.45l-1,2.57c-0.24,0.62-1.11,0.64-1.38,0.04l-1.59-3.49l2.28,2.71
		c0,0,0.93-2.36,0.93-2.37c1-2.48,3.1-4.41,5.98-4.33c0.85,0.02,1.71,0.04,2.56,0.07c-1.51-1.02-4.78-2.07-3.87-4.54
		c0.12-0.33,0.95-1.3,1.29-1.33L11.01,5.4c-0.34,0.03-0.48-0.42-0.18-0.59l2.85-1.56c0.11-0.06,0.24,0.06,0.19,0.17l-0.67,1.45
		l2.58-0.97l-0.08-0.66c-0.2,0-0.41,0-0.61-0.01c-0.19,0-0.32-0.19-0.27-0.37c0.05-0.16,0.1-0.32,0.15-0.48
		c-0.12,0.35-1.44,0.16-1.7,0.14c-0.84-0.07-1.37-0.29-2.11-0.69C10.26,1.36,9.55,1.8,8.6,2.1C8.42,2.15,8.24,2.21,8.07,2.3
		c-0.7,0.39-0.96,1.28-1.56,1.81C6.9,4.33,7.3,4.54,7.7,4.75C6.93,5.16,6.17,5.57,5.41,5.98C5.23,5.06,5.04,4.15,4.85,3.24z"/>
	<path class="st0" d="M10.35,2.48l-0.14,0.9c-0.04,0.23,0.2,0.41,0.54,0.3l1.38-0.7c0.12-0.13,0.06-0.49-0.22-0.54l-1.23-0.2
		C10.52,2.22,10.37,2.32,10.35,2.48z"/>
	<path class="st0" d="M7.15,5.97L6.77,8.05L7.36,7.5c0,0,1.23,0.51,2.16,0.8C9.51,8.3,7.95,7.45,7.15,5.97z"/>
</g>
</svg>
